<svg width="296" height="211" viewBox="0 0 296 211" fill="none" xmlns="http://www.w3.org/2000/svg">
<path d="M33.5734 187.856L36.2989 177.738C39.0243 167.619 44.4753 147.383 49.9263 141.489C55.3773 135.596 60.8283 144.045 66.2792 142.124C71.7302 140.203 77.1812 127.912 82.6322 125.375C88.0832 122.838 93.5342 130.055 98.9851 134.221C104.436 138.387 109.887 139.501 115.338 134.225C120.789 128.95 126.24 117.286 131.691 116.459C137.142 115.632 142.593 125.642 148.044 127.441C153.495 129.24 158.946 122.828 164.397 118.505C169.848 114.183 175.299 111.95 180.75 115.399C186.201 118.848 191.652 127.978 197.103 122.984C202.554 117.99 208.005 98.8712 213.456 91.7869C218.907 84.7027 224.358 89.6525 229.809 90.5144C235.26 91.3763 240.711 88.1503 246.162 94.7567C251.613 101.363 257.064 117.802 262.515 115.88C267.966 113.958 273.416 93.6751 278.867 80.635C284.318 67.5948 289.769 61.7974 292.495 58.8987L295.22 56" stroke="#8BF349"/>
<path d="M295 189L295.5 189V188L295 188V189ZM5 189L295 189V188L5 188V189Z" fill="#06555A"/>
<path d="M33.25 45.4993V44.9993H32.25V45.4993H33.25ZM33.25 210.5L33.25 45.4993H32.25L32.25 210.5H33.25Z" fill="#06555A"/>
<path d="M7.84 22.6398C6.54667 22.6398 5.35333 22.3398 4.26 21.7398C3.18 21.1264 2.32 20.2798 1.68 19.1998C1.05333 18.1064 0.74 16.8798 0.74 15.5198C0.74 14.1598 1.05333 12.9398 1.68 11.8598C2.32 10.7798 3.18 9.93976 4.26 9.33975C5.35333 8.72642 6.54667 8.41975 7.84 8.41975C9.14667 8.41975 10.34 8.72642 11.42 9.33975C12.5133 9.93976 13.3733 10.7798 14 11.8598C14.6267 12.9398 14.94 14.1598 14.94 15.5198C14.94 16.8798 14.6267 18.1064 14 19.1998C13.3733 20.2798 12.5133 21.1264 11.42 21.7398C10.34 22.3398 9.14667 22.6398 7.84 22.6398ZM7.84 20.6598C8.76 20.6598 9.58 20.4531 10.3 20.0398C11.02 19.6131 11.58 19.0131 11.98 18.2398C12.3933 17.4531 12.6 16.5464 12.6 15.5198C12.6 14.4931 12.3933 13.5931 11.98 12.8198C11.58 12.0464 11.02 11.4531 10.3 11.0398C9.58 10.6264 8.76 10.4198 7.84 10.4198C6.92 10.4198 6.1 10.6264 5.38 11.0398C4.66 11.4531 4.09333 12.0464 3.68 12.8198C3.28 13.5931 3.08 14.4931 3.08 15.5198C3.08 16.5464 3.28 17.4531 3.68 18.2398C4.09333 19.0131 4.66 19.6131 5.38 20.0398C6.1 20.4531 6.92 20.6598 7.84 20.6598ZM21.4436 20.4598L24.5636 11.4798H26.9836L22.7836 22.4998H20.0636L15.8836 11.4798H18.3236L21.4436 20.4598ZM38.807 16.7198C38.807 17.1331 38.7804 17.5064 38.727 17.8398H30.307C30.3737 18.7198 30.7004 19.4264 31.287 19.9598C31.8737 20.4931 32.5937 20.7598 33.447 20.7598C34.6737 20.7598 35.5404 20.2464 36.047 19.2198H38.507C38.1737 20.2331 37.567 21.0664 36.687 21.7198C35.8204 22.3598 34.7404 22.6798 33.447 22.6798C32.3937 22.6798 31.447 22.4464 30.607 21.9798C29.7804 21.4998 29.127 20.8331 28.647 19.9798C28.1804 19.1131 27.947 18.1131 27.947 16.9798C27.947 15.8464 28.1737 14.8531 28.627 13.9998C29.0937 13.1331 29.7404 12.4664 30.567 11.9998C31.407 11.5331 32.367 11.2998 33.447 11.2998C34.487 11.2998 35.4137 11.5264 36.227 11.9798C37.0404 12.4331 37.6737 13.0731 38.127 13.8998C38.5804 14.7131 38.807 15.6531 38.807 16.7198ZM36.427 15.9998C36.4137 15.1598 36.1137 14.4864 35.527 13.9798C34.9404 13.4731 34.2137 13.2198 33.347 13.2198C32.5604 13.2198 31.887 13.4731 31.327 13.9798C30.767 14.4731 30.4337 15.1464 30.327 15.9998H36.427ZM43.3308 13.0798C43.6641 12.5198 44.1041 12.0864 44.6508 11.7798C45.2108 11.4598 45.8708 11.2998 46.6308 11.2998V13.6598H46.0508C45.1574 13.6598 44.4774 13.8864 44.0108 14.3398C43.5574 14.7931 43.3308 15.5798 43.3308 16.6998V22.4998H41.0508V11.4798H43.3308V13.0798ZM62.3019 19.6598H56.4819L55.4819 22.4998H53.1019L58.0819 8.57976H60.7219L65.7019 22.4998H63.3019L62.3019 19.6598ZM61.6619 17.7998L59.4019 11.3398L57.1219 17.7998H61.6619ZM70.1472 7.69976V22.4998H67.8672V7.69976H70.1472ZM75.4206 7.69976V22.4998H73.1406V7.69976H75.4206ZM86.2694 13.3398V19.4398C86.2694 19.8531 86.3627 20.1531 86.5494 20.3398C86.7494 20.5131 87.0827 20.5998 87.5494 20.5998H88.9494V22.4998H87.1494C86.1227 22.4998 85.336 22.2598 84.7894 21.7798C84.2427 21.2998 83.9694 20.5198 83.9694 19.4398V13.3398H82.6694V11.4798H83.9694V8.73976H86.2694V11.4798H88.9494V13.3398H86.2694ZM92.2108 10.0198C91.7974 10.0198 91.4508 9.87976 91.1708 9.59976C90.8908 9.31976 90.7508 8.97309 90.7508 8.55976C90.7508 8.14642 90.8908 7.79976 91.1708 7.51976C91.4508 7.23976 91.7974 7.09976 92.2108 7.09976C92.6108 7.09976 92.9508 7.23976 93.2308 7.51976C93.5108 7.79976 93.6508 8.14642 93.6508 8.55976C93.6508 8.97309 93.5108 9.31976 93.2308 9.59976C92.9508 9.87976 92.6108 10.0198 92.2108 10.0198ZM93.3308 11.4798V22.4998H91.0508V11.4798H93.3308ZM109.664 11.2998C110.531 11.2998 111.304 11.4798 111.984 11.8398C112.678 12.1998 113.218 12.7331 113.604 13.4398C114.004 14.1464 114.204 14.9998 114.204 15.9998V22.4998H111.944V16.3398C111.944 15.3531 111.698 14.5998 111.204 14.0798C110.711 13.5464 110.038 13.2798 109.184 13.2798C108.331 13.2798 107.651 13.5464 107.144 14.0798C106.651 14.5998 106.404 15.3531 106.404 16.3398V22.4998H104.144V16.3398C104.144 15.3531 103.898 14.5998 103.404 14.0798C102.911 13.5464 102.238 13.2798 101.384 13.2798C100.531 13.2798 99.8509 13.5464 99.3442 14.0798C98.8509 14.5998 98.6042 15.3531 98.6042 16.3398V22.4998H96.3242V11.4798H98.6042V12.7398C98.9776 12.2864 99.4509 11.9331 100.024 11.6798C100.598 11.4264 101.211 11.2998 101.864 11.2998C102.744 11.2998 103.531 11.4864 104.224 11.8598C104.918 12.2331 105.451 12.7731 105.824 13.4798C106.158 12.8131 106.678 12.2864 107.384 11.8998C108.091 11.4998 108.851 11.2998 109.664 11.2998ZM127.205 16.7198C127.205 17.1331 127.179 17.5064 127.125 17.8398H118.705C118.772 18.7198 119.099 19.4264 119.685 19.9598C120.272 20.4931 120.992 20.7598 121.845 20.7598C123.072 20.7598 123.939 20.2464 124.445 19.2198H126.905C126.572 20.2331 125.965 21.0664 125.085 21.7198C124.219 22.3598 123.139 22.6798 121.845 22.6798C120.792 22.6798 119.845 22.4464 119.005 21.9798C118.179 21.4998 117.525 20.8331 117.045 19.9798C116.579 19.1131 116.345 18.1131 116.345 16.9798C116.345 15.8464 116.572 14.8531 117.025 13.9998C117.492 13.1331 118.139 12.4664 118.965 11.9998C119.805 11.5331 120.765 11.2998 121.845 11.2998C122.885 11.2998 123.812 11.5264 124.625 11.9798C125.439 12.4331 126.072 13.0731 126.525 13.8998C126.979 14.7131 127.205 15.6531 127.205 16.7198ZM124.825 15.9998C124.812 15.1598 124.512 14.4864 123.925 13.9798C123.339 13.4731 122.612 13.2198 121.745 13.2198C120.959 13.2198 120.285 13.4731 119.725 13.9798C119.165 14.4731 118.832 15.1464 118.725 15.9998H124.825ZM138.645 22.6798C137.778 22.6798 136.998 22.5264 136.305 22.2198C135.625 21.8998 135.085 21.4731 134.685 20.9398C134.285 20.3931 134.071 19.7864 134.045 19.1198H136.405C136.445 19.5864 136.665 19.9798 137.065 20.2998C137.478 20.6064 137.991 20.7598 138.605 20.7598C139.245 20.7598 139.738 20.6398 140.085 20.3998C140.445 20.1464 140.625 19.8264 140.625 19.4398C140.625 19.0264 140.425 18.7198 140.025 18.5198C139.638 18.3198 139.018 18.0998 138.165 17.8598C137.338 17.6331 136.665 17.4131 136.145 17.1998C135.625 16.9864 135.171 16.6598 134.785 16.2198C134.411 15.7798 134.225 15.1998 134.225 14.4798C134.225 13.8931 134.398 13.3598 134.745 12.8798C135.091 12.3864 135.585 11.9998 136.225 11.7198C136.878 11.4398 137.625 11.2998 138.465 11.2998C139.718 11.2998 140.725 11.6198 141.485 12.2598C142.258 12.8864 142.671 13.7464 142.725 14.8398H140.445C140.405 14.3464 140.205 13.9531 139.845 13.6598C139.485 13.3664 138.998 13.2198 138.385 13.2198C137.785 13.2198 137.325 13.3331 137.005 13.5598C136.685 13.7864 136.525 14.0864 136.525 14.4598C136.525 14.7531 136.631 14.9998 136.845 15.1998C137.058 15.3998 137.318 15.5598 137.625 15.6798C137.931 15.7864 138.385 15.9264 138.985 16.0998C139.785 16.3131 140.438 16.5331 140.945 16.7598C141.465 16.9731 141.911 17.2931 142.285 17.7198C142.658 18.1464 142.851 18.7131 142.865 19.4198C142.865 20.0464 142.691 20.6064 142.345 21.0998C141.998 21.5931 141.505 21.9798 140.865 22.2598C140.238 22.5398 139.498 22.6798 138.645 22.6798ZM147.608 13.0998C147.995 12.5931 148.521 12.1664 149.188 11.8198C149.855 11.4731 150.608 11.2998 151.448 11.2998C152.408 11.2998 153.281 11.5398 154.068 12.0198C154.868 12.4864 155.495 13.1464 155.948 13.9998C156.401 14.8531 156.628 15.8331 156.628 16.9398C156.628 18.0464 156.401 19.0398 155.948 19.9198C155.495 20.7864 154.868 21.4664 154.068 21.9598C153.281 22.4398 152.408 22.6798 151.448 22.6798C150.608 22.6798 149.861 22.5131 149.208 22.1798C148.555 21.8331 148.021 21.4064 147.608 20.8998V27.7398H145.328V11.4798H147.608V13.0998ZM154.308 16.9398C154.308 16.1798 154.148 15.5264 153.828 14.9798C153.521 14.4198 153.108 13.9998 152.588 13.7198C152.081 13.4264 151.535 13.2798 150.948 13.2798C150.375 13.2798 149.828 13.4264 149.308 13.7198C148.801 14.0131 148.388 14.4398 148.068 14.9998C147.761 15.5598 147.608 16.2198 147.608 16.9798C147.608 17.7398 147.761 18.4064 148.068 18.9798C148.388 19.5398 148.801 19.9664 149.308 20.2598C149.828 20.5531 150.375 20.6998 150.948 20.6998C151.535 20.6998 152.081 20.5531 152.588 20.2598C153.108 19.9531 153.521 19.5131 153.828 18.9398C154.148 18.3664 154.308 17.6998 154.308 16.9398ZM168.983 16.7198C168.983 17.1331 168.956 17.5064 168.903 17.8398H160.483C160.549 18.7198 160.876 19.4264 161.463 19.9598C162.049 20.4931 162.769 20.7598 163.623 20.7598C164.849 20.7598 165.716 20.2464 166.223 19.2198H168.683C168.349 20.2331 167.743 21.0664 166.863 21.7198C165.996 22.3598 164.916 22.6798 163.623 22.6798C162.569 22.6798 161.623 22.4464 160.783 21.9798C159.956 21.4998 159.303 20.8331 158.823 19.9798C158.356 19.1131 158.123 18.1131 158.123 16.9798C158.123 15.8464 158.349 14.8531 158.803 13.9998C159.269 13.1331 159.916 12.4664 160.743 11.9998C161.583 11.5331 162.543 11.2998 163.623 11.2998C164.663 11.2998 165.589 11.5264 166.403 11.9798C167.216 12.4331 167.849 13.0731 168.303 13.8998C168.756 14.7131 168.983 15.6531 168.983 16.7198ZM166.603 15.9998C166.589 15.1598 166.289 14.4864 165.703 13.9798C165.116 13.4731 164.389 13.2198 163.523 13.2198C162.736 13.2198 162.063 13.4731 161.503 13.9798C160.943 14.4731 160.609 15.1464 160.503 15.9998H166.603ZM176.787 11.2998C177.653 11.2998 178.427 11.4798 179.107 11.8398C179.8 12.1998 180.34 12.7331 180.727 13.4398C181.113 14.1464 181.307 14.9998 181.307 15.9998V22.4998H179.047V16.3398C179.047 15.3531 178.8 14.5998 178.307 14.0798C177.813 13.5464 177.14 13.2798 176.287 13.2798C175.433 13.2798 174.753 13.5464 174.247 14.0798C173.753 14.5998 173.507 15.3531 173.507 16.3398V22.4998H171.227V11.4798H173.507V12.7398C173.88 12.2864 174.353 11.9331 174.927 11.6798C175.513 11.4264 176.133 11.2998 176.787 11.2998ZM183.455 16.9398C183.455 15.8331 183.682 14.8531 184.135 13.9998C184.602 13.1464 185.228 12.4864 186.015 12.0198C186.815 11.5398 187.702 11.2998 188.675 11.2998C189.395 11.2998 190.102 11.4598 190.795 11.7798C191.502 12.0864 192.062 12.4998 192.475 13.0198V7.69976H194.775V22.4998H192.475V20.8398C192.102 21.3731 191.582 21.8131 190.915 22.1598C190.262 22.5064 189.508 22.6798 188.655 22.6798C187.695 22.6798 186.815 22.4398 186.015 21.9598C185.228 21.4664 184.602 20.7864 184.135 19.9198C183.682 19.0398 183.455 18.0464 183.455 16.9398ZM192.475 16.9798C192.475 16.2198 192.315 15.5598 191.995 14.9998C191.688 14.4398 191.282 14.0131 190.775 13.7198C190.268 13.4264 189.722 13.2798 189.135 13.2798C188.548 13.2798 188.002 13.4264 187.495 13.7198C186.988 13.9998 186.575 14.4198 186.255 14.9798C185.948 15.5264 185.795 16.1798 185.795 16.9398C185.795 17.6998 185.948 18.3664 186.255 18.9398C186.575 19.5131 186.988 19.9531 187.495 20.2598C188.015 20.5531 188.562 20.6998 189.135 20.6998C189.722 20.6998 190.268 20.5531 190.775 20.2598C191.282 19.9664 191.688 19.5398 191.995 18.9798C192.315 18.4064 192.475 17.7398 192.475 16.9798ZM198.93 10.0198C198.516 10.0198 198.17 9.87976 197.89 9.59976C197.61 9.31976 197.47 8.97309 197.47 8.55976C197.47 8.14642 197.61 7.79976 197.89 7.51976C198.17 7.23976 198.516 7.09976 198.93 7.09976C199.33 7.09976 199.67 7.23976 199.95 7.51976C200.23 7.79976 200.37 8.14642 200.37 8.55976C200.37 8.97309 200.23 9.31976 199.95 9.59976C199.67 9.87976 199.33 10.0198 198.93 10.0198ZM200.05 11.4798V22.4998H197.77V11.4798H200.05ZM208.603 11.2998C209.47 11.2998 210.243 11.4798 210.923 11.8398C211.616 12.1998 212.156 12.7331 212.543 13.4398C212.93 14.1464 213.123 14.9998 213.123 15.9998V22.4998H210.863V16.3398C210.863 15.3531 210.616 14.5998 210.123 14.0798C209.63 13.5464 208.956 13.2798 208.103 13.2798C207.25 13.2798 206.57 13.5464 206.063 14.0798C205.57 14.5998 205.323 15.3531 205.323 16.3398V22.4998H203.043V11.4798H205.323V12.7398C205.696 12.2864 206.17 11.9331 206.743 11.6798C207.33 11.4264 207.95 11.2998 208.603 11.2998ZM220.471 11.2998C221.325 11.2998 222.078 11.4731 222.731 11.8198C223.398 12.1531 223.918 12.5731 224.291 13.0798V11.4798H226.591V22.6798C226.591 23.6931 226.378 24.5931 225.951 25.3798C225.525 26.1798 224.905 26.8064 224.091 27.2598C223.291 27.7131 222.331 27.9398 221.211 27.9398C219.718 27.9398 218.478 27.5864 217.491 26.8798C216.505 26.1864 215.945 25.2398 215.811 24.0398H218.071C218.245 24.6131 218.611 25.0731 219.171 25.4198C219.745 25.7798 220.425 25.9598 221.211 25.9598C222.131 25.9598 222.871 25.6798 223.431 25.1198C224.005 24.5598 224.291 23.7464 224.291 22.6798V20.8398C223.905 21.3598 223.378 21.7998 222.711 22.1598C222.058 22.5064 221.311 22.6798 220.471 22.6798C219.511 22.6798 218.631 22.4398 217.831 21.9598C217.045 21.4664 216.418 20.7864 215.951 19.9198C215.498 19.0398 215.271 18.0464 215.271 16.9398C215.271 15.8331 215.498 14.8531 215.951 13.9998C216.418 13.1464 217.045 12.4864 217.831 12.0198C218.631 11.5398 219.511 11.2998 220.471 11.2998ZM224.291 16.9798C224.291 16.2198 224.131 15.5598 223.811 14.9998C223.505 14.4398 223.098 14.0131 222.591 13.7198C222.085 13.4264 221.538 13.2798 220.951 13.2798C220.365 13.2798 219.818 13.4264 219.311 13.7198C218.805 13.9998 218.391 14.4198 218.071 14.9798C217.765 15.5264 217.611 16.1798 217.611 16.9398C217.611 17.6998 217.765 18.3664 218.071 18.9398C218.391 19.5131 218.805 19.9531 219.311 20.2598C219.831 20.5531 220.378 20.6998 220.951 20.6998C221.538 20.6998 222.085 20.5531 222.591 20.2598C223.098 19.9664 223.505 19.5398 223.811 18.9798C224.131 18.4064 224.291 17.7398 224.291 16.9798ZM230.506 22.6398C230.093 22.6398 229.746 22.4998 229.466 22.2198C229.186 21.9398 229.046 21.5931 229.046 21.1798C229.046 20.7664 229.186 20.4198 229.466 20.1398C229.746 19.8598 230.093 19.7198 230.506 19.7198C230.906 19.7198 231.246 19.8598 231.526 20.1398C231.806 20.4198 231.946 20.7664 231.946 21.1798C231.946 21.5931 231.806 21.9398 231.526 22.2198C231.246 22.4998 230.906 22.6398 230.506 22.6398ZM230.506 14.2398C230.093 14.2398 229.746 14.0998 229.466 13.8198C229.186 13.5398 229.046 13.1931 229.046 12.7798C229.046 12.3664 229.186 12.0198 229.466 11.7398C229.746 11.4598 230.093 11.3198 230.506 11.3198C230.906 11.3198 231.246 11.4598 231.526 11.7398C231.806 12.0198 231.946 12.3664 231.946 12.7798C231.946 13.1931 231.806 13.5398 231.526 13.8198C231.246 14.0998 230.906 14.2398 230.506 14.2398Z" fill="#06555A"/>
</svg>
