<svg width="228" height="202" viewBox="0 0 228 202" fill="none" xmlns="http://www.w3.org/2000/svg">
<path d="M203 102C203 91.2359 200.828 80.5826 196.613 70.6778C192.399 60.7731 186.229 51.8207 178.473 44.3567C170.717 36.8928 161.535 31.0708 151.475 27.2394C141.416 23.408 130.687 21.646 119.931 22.0589L121.849 72.0221C125.883 71.8672 129.906 72.528 133.678 73.9648C137.45 75.4016 140.894 77.5848 143.802 80.3838C146.711 83.1828 149.024 86.5399 150.605 90.2542C152.185 93.9685 153 97.9635 153 102H203Z" fill="#8BF349" stroke="#F1FFE9"/>
<path d="M119.931 22.059C108.613 22.4934 97.5157 25.3264 87.3741 30.3705C77.2325 35.4145 68.2775 42.5546 61.1018 51.3184L99.7881 82.9945C102.479 79.708 105.837 77.0305 109.64 75.139C113.443 73.2475 117.605 72.1851 121.849 72.0222L119.931 22.059Z" fill="#8BF349" stroke="#F1FFE9"/>
<path d="M61.1019 51.3184C49.3765 65.6388 42.9792 83.5819 43.0001 102.09C43.0209 120.599 49.4587 138.527 61.2165 152.821L99.8312 121.058C95.422 115.698 93.0079 108.975 93 102.034C92.9922 95.0932 95.3912 88.3646 99.7882 82.9944L61.1019 51.3184Z" fill="#8BF349" stroke="#F1FFE9"/>
<path d="M61.2164 152.821C71.6786 165.54 85.8111 174.72 101.685 179.108C117.558 183.496 134.399 182.878 149.909 177.339L133.091 130.252C127.275 132.329 120.959 132.561 115.007 130.916C109.054 129.27 103.754 125.828 99.8311 121.058L61.2164 152.821Z" fill="#8BF349" stroke="#F1FFE9"/>
<path d="M149.909 177.339C165.447 171.789 178.889 161.57 188.394 148.083C197.898 134.596 203 118.5 203 102H153C153 108.187 151.087 114.223 147.523 119.281C143.958 124.339 138.918 128.171 133.091 130.252L149.909 177.339Z" fill="#8BF349" stroke="#F1FFE9"/>
<path d="M178.473 44.3567L192.341 29.9459" stroke="#8BF349"/>
<path d="M193.517 29.9459L197.421 22.2243V22.1561H192.921V21.2186H198.512V22.2073L194.625 29.9459H193.517ZM203.168 21.2186V29.9459H202.111V22.3266H202.06L199.93 23.7414V22.6675L202.111 21.2186H203.168ZM208.627 30.0652C208.065 30.0652 207.563 29.9687 207.123 29.7755C206.685 29.5823 206.337 29.3138 206.079 28.9701C205.823 28.6235 205.684 28.2215 205.661 27.7641H206.735C206.758 28.0454 206.854 28.2883 207.025 28.4928C207.195 28.6945 207.418 28.8508 207.694 28.9615C207.969 29.0723 208.275 29.1277 208.61 29.1277C208.985 29.1277 209.317 29.0624 209.607 28.9317C209.897 28.801 210.124 28.6192 210.289 28.3863C210.454 28.1533 210.536 27.8834 210.536 27.5766C210.536 27.2556 210.457 26.9729 210.298 26.7286C210.138 26.4814 209.905 26.2883 209.599 26.149C209.292 26.0098 208.917 25.9402 208.474 25.9402H207.775V25.0027H208.474C208.82 25.0027 209.124 24.9402 209.386 24.8152C209.65 24.6902 209.856 24.5141 210.003 24.2868C210.154 24.0596 210.229 23.7925 210.229 23.4857C210.229 23.1902 210.164 22.9331 210.033 22.7144C209.903 22.4956 209.718 22.3252 209.479 22.203C209.244 22.0809 208.965 22.0198 208.644 22.0198C208.343 22.0198 208.059 22.0752 207.792 22.186C207.528 22.2939 207.312 22.4516 207.144 22.659C206.976 22.8635 206.886 23.1107 206.871 23.4005H205.849C205.866 22.9431 206.003 22.5425 206.262 22.1988C206.521 21.8522 206.859 21.5823 207.276 21.3891C207.697 21.1959 208.158 21.0993 208.661 21.0993C209.201 21.0993 209.664 21.2087 210.05 21.4275C210.437 21.6434 210.734 21.9289 210.941 22.284C211.148 22.6391 211.252 23.0226 211.252 23.4346C211.252 23.926 211.123 24.3451 210.864 24.6917C210.609 25.0383 210.261 25.2783 209.82 25.4118V25.48C210.371 25.5709 210.802 25.8053 211.111 26.1831C211.421 26.5581 211.576 27.0226 211.576 27.5766C211.576 28.051 211.447 28.4772 211.188 28.855C210.932 29.23 210.583 29.5255 210.14 29.7414C209.697 29.9573 209.192 30.0652 208.627 30.0652Z" fill="#8BF349"/>
<path d="M87.3742 30.3704L78.4678 12.463" stroke="#8BF349"/>
<path d="M60.6404 12.5823C60.0779 12.5823 59.5764 12.4857 59.1361 12.2926C58.6986 12.0994 58.3506 11.8309 58.0921 11.4872C57.8364 11.1406 57.6972 10.7386 57.6744 10.2812H58.7483C58.771 10.5624 58.8676 10.8053 59.0381 11.0099C59.2085 11.2116 59.4316 11.3678 59.7071 11.4786C59.9827 11.5894 60.2881 11.6448 60.6233 11.6448C60.9983 11.6448 61.3307 11.5795 61.6205 11.4488C61.9102 11.3181 62.1375 11.1363 62.3023 10.9034C62.4671 10.6704 62.5494 10.4005 62.5494 10.0937C62.5494 9.77267 62.4699 9.49 62.3108 9.24568C62.1517 8.99852 61.9188 8.80534 61.6119 8.66614C61.3051 8.52693 60.9301 8.45733 60.4869 8.45733H59.7881V7.51983H60.4869C60.8335 7.51983 61.1375 7.45733 61.3989 7.33233C61.6631 7.20733 61.8691 7.03119 62.0168 6.80392C62.1673 6.57665 62.2426 6.3096 62.2426 6.00278C62.2426 5.70733 62.1773 5.45023 62.0466 5.23148C61.9159 5.01273 61.7313 4.84227 61.4926 4.72011C61.2568 4.59796 60.9784 4.53688 60.6574 4.53688C60.3563 4.53688 60.0722 4.59227 59.8051 4.70307C59.5409 4.81102 59.325 4.96869 59.1574 5.17608C58.9898 5.38063 58.8989 5.62779 58.8847 5.91756H57.8619C57.879 5.46017 58.0168 5.0596 58.2753 4.71585C58.5338 4.36926 58.8719 4.09938 59.2895 3.90619C59.71 3.71301 60.1716 3.61642 60.6744 3.61642C61.2142 3.61642 61.6773 3.7258 62.0637 3.94455C62.45 4.16046 62.7469 4.44597 62.9543 4.80108C63.1617 5.15619 63.2654 5.53972 63.2654 5.95165C63.2654 6.44313 63.1361 6.86216 62.8776 7.20875C62.6219 7.55534 62.2739 7.7954 61.8335 7.92892V7.9971C62.3847 8.08801 62.8151 8.32239 63.1247 8.70023C63.4344 9.07523 63.5892 9.53972 63.5892 10.0937C63.5892 10.5681 63.46 10.9943 63.2014 11.3721C62.9458 11.7471 62.5963 12.0426 62.1531 12.2585C61.71 12.4744 61.2057 12.5823 60.6404 12.5823ZM65.6048 12.463L69.5083 4.74142V4.67324H65.0083V3.73574H70.5992V4.72438L66.7128 12.463H65.6048ZM74.7977 12.5823C74.2977 12.5823 73.8474 12.4829 73.4468 12.284C73.0463 12.0852 72.7252 11.8124 72.4838 11.4659C72.2423 11.1193 72.1102 10.7244 72.0874 10.2812H73.1102C73.1499 10.6761 73.3289 11.0028 73.6471 11.2613C73.9681 11.517 74.3517 11.6448 74.7977 11.6448C75.1556 11.6448 75.4738 11.561 75.7522 11.3934C76.0335 11.2258 76.2536 10.9957 76.4127 10.7031C76.5747 10.4076 76.6556 10.0738 76.6556 9.70165C76.6556 9.32097 76.5718 8.98148 76.4042 8.68318C76.2394 8.38205 76.0122 8.14483 75.7224 7.97154C75.4326 7.79824 75.1017 7.71017 74.7295 7.70733C74.4624 7.70449 74.1883 7.74568 73.907 7.83091C73.6258 7.9133 73.3943 8.01983 73.2124 8.15051L72.2238 8.03119L72.7522 3.73574H77.2863V4.67324H73.6386L73.3318 7.2471H73.3829C73.5619 7.10506 73.7863 6.98716 74.0562 6.89341C74.3261 6.79966 74.6073 6.75279 74.8999 6.75279C75.434 6.75279 75.9099 6.88063 76.3275 7.13631C76.748 7.38915 77.0775 7.73574 77.3161 8.17608C77.5576 8.61642 77.6784 9.11926 77.6784 9.6846C77.6784 10.2414 77.5534 10.7386 77.3034 11.1761C77.0562 11.6107 76.7153 11.9545 76.2806 12.2073C75.846 12.4573 75.3517 12.5823 74.7977 12.5823Z" fill="#8BF349"/>
<path d="M43 102.09L23 102.113" stroke="#8BF349"/>
<path d="M4.32457 102.232C3.96662 102.227 3.60866 102.158 3.25071 102.028C2.89276 101.897 2.56605 101.677 2.2706 101.367C1.97514 101.055 1.73793 100.633 1.55895 100.102C1.37997 99.5675 1.29048 98.897 1.29048 98.0902C1.29048 97.3175 1.36293 96.6328 1.50781 96.0362C1.6527 95.4368 1.86293 94.9325 2.13849 94.5234C2.41406 94.1115 2.74645 93.799 3.13565 93.5859C3.5277 93.3729 3.96946 93.2663 4.46094 93.2663C4.94957 93.2663 5.38423 93.3643 5.76491 93.5604C6.14844 93.7535 6.46094 94.0234 6.70242 94.37C6.94389 94.7166 7.10014 95.1158 7.17117 95.5675H6.13139C6.0348 95.1754 5.8473 94.8501 5.56889 94.5916C5.29048 94.3331 4.92116 94.2038 4.46094 94.2038C3.7848 94.2038 3.25213 94.4979 2.86293 95.0859C2.47656 95.674 2.28196 96.4993 2.27912 97.5618H2.3473C2.50639 97.3203 2.69531 97.1143 2.91406 96.9439C3.13565 96.7706 3.37997 96.6371 3.64702 96.5433C3.91406 96.4496 4.19673 96.4027 4.49503 96.4027C4.99503 96.4027 5.45241 96.5277 5.86719 96.7777C6.28196 97.0248 6.61435 97.3672 6.86435 97.8047C7.11435 98.2393 7.23935 98.7379 7.23935 99.3004C7.23935 99.8402 7.11861 100.335 6.87713 100.783C6.63565 101.229 6.29616 101.585 5.85866 101.849C5.42401 102.11 4.91264 102.238 4.32457 102.232ZM4.32457 101.295C4.68253 101.295 5.00355 101.205 5.28764 101.026C5.57457 100.847 5.80043 100.607 5.9652 100.306C6.13281 100.005 6.21662 99.6697 6.21662 99.3004C6.21662 98.9396 6.13565 98.6115 5.97372 98.316C5.81463 98.0177 5.59446 97.7805 5.31321 97.6044C5.0348 97.4283 4.71662 97.3402 4.35866 97.3402C4.08878 97.3402 3.83736 97.3942 3.6044 97.5021C3.37145 97.6072 3.1669 97.7521 2.99077 97.9368C2.81747 98.1214 2.68111 98.3331 2.58168 98.5717C2.48224 98.8075 2.43253 99.0561 2.43253 99.3175C2.43253 99.6641 2.51349 99.9879 2.67543 100.289C2.8402 100.59 3.06463 100.833 3.34872 101.018C3.63565 101.202 3.96094 101.295 4.32457 101.295ZM11.7617 102.232C11.1197 102.232 10.5728 102.058 10.1211 101.708C9.66939 101.356 9.32422 100.846 9.08558 100.178C8.84695 99.5078 8.72763 98.6981 8.72763 97.7493C8.72763 96.8061 8.84695 96.0007 9.08558 95.3331C9.32706 94.6626 9.67365 94.1513 10.1254 93.799C10.5799 93.4439 11.1254 93.2663 11.7617 93.2663C12.3981 93.2663 12.9421 93.4439 13.3938 93.799C13.8484 94.1513 14.195 94.6626 14.4336 95.3331C14.6751 96.0007 14.7958 96.8061 14.7958 97.7493C14.7958 98.6981 14.6765 99.5078 14.4379 100.178C14.1992 100.846 13.854 101.356 13.4023 101.708C12.9506 102.058 12.4038 102.232 11.7617 102.232ZM11.7617 101.295C12.3981 101.295 12.8924 100.988 13.2447 100.374C13.5969 99.7606 13.7731 98.8856 13.7731 97.7493C13.7731 96.9936 13.6921 96.3501 13.5302 95.8189C13.3711 95.2876 13.141 94.8828 12.8398 94.6044C12.5415 94.326 12.1822 94.1868 11.7617 94.1868C11.131 94.1868 10.6381 94.4979 10.283 95.12C9.92791 95.7393 9.75036 96.6158 9.75036 97.7493C9.75036 98.505 9.8299 99.147 9.98899 99.6754C10.1481 100.204 10.3768 100.606 10.6751 100.881C10.9762 101.157 11.3384 101.295 11.7617 101.295ZM19.1935 93.2663C19.5515 93.2692 19.9094 93.3373 20.2674 93.4709C20.6254 93.6044 20.9521 93.826 21.2475 94.1356C21.543 94.4425 21.7802 94.8615 21.9592 95.3927C22.1381 95.924 22.2276 96.5902 22.2276 97.3913C22.2276 98.1669 22.1538 98.8558 22.006 99.4581C21.8612 100.058 21.6509 100.563 21.3754 100.975C21.1026 101.387 20.7702 101.7 20.3782 101.913C19.989 102.126 19.5487 102.232 19.0572 102.232C18.5685 102.232 18.1325 102.136 17.7489 101.942C17.3683 101.746 17.0558 101.475 16.8114 101.129C16.57 100.779 16.4151 100.374 16.3469 99.9141H17.3867C17.4805 100.315 17.6665 100.646 17.945 100.907C18.2262 101.165 18.5969 101.295 19.0572 101.295C19.7305 101.295 20.2617 101.001 20.6509 100.413C21.043 99.8246 21.239 98.9936 21.239 97.9197H21.1708C21.0117 98.1584 20.8228 98.3643 20.604 98.5376C20.3853 98.7109 20.1424 98.8444 19.8754 98.9382C19.6083 99.0319 19.3242 99.0788 19.0231 99.0788C18.5231 99.0788 18.0643 98.9552 17.6467 98.7081C17.2319 98.4581 16.8995 98.1158 16.6495 97.6811C16.4023 97.2436 16.2788 96.7436 16.2788 96.1811C16.2788 95.647 16.3981 95.1584 16.6367 94.7152C16.8782 94.2692 17.2163 93.9141 17.6509 93.6498C18.0884 93.3856 18.6026 93.2578 19.1935 93.2663ZM19.1935 94.2038C18.8356 94.2038 18.5131 94.2933 18.2262 94.4723C17.9421 94.6484 17.7163 94.8871 17.5487 95.1882C17.3839 95.4865 17.3015 95.8175 17.3015 96.1811C17.3015 96.5447 17.381 96.8757 17.5401 97.174C17.7021 97.4694 17.9222 97.7052 18.2006 97.8814C18.4819 98.0547 18.8015 98.1413 19.1594 98.1413C19.4293 98.1413 19.6808 98.0888 19.9137 97.9837C20.1467 97.8757 20.3498 97.7294 20.5231 97.5447C20.6992 97.3572 20.837 97.1456 20.9364 96.9098C21.0359 96.6712 21.0856 96.4226 21.0856 96.1641C21.0856 95.8231 21.0032 95.5035 20.8384 95.2052C20.6765 94.9069 20.4521 94.6655 20.1651 94.4808C19.881 94.2962 19.5572 94.2038 19.1935 94.2038Z" fill="#8BF349"/>
<path d="M101.685 179.108L96.3558 198.385" stroke="#8BF349"/>
<path d="M77.3459 198.504C76.8459 198.504 76.3956 198.405 75.995 198.206C75.5945 198.007 75.2734 197.735 75.032 197.388C74.7905 197.041 74.6584 196.646 74.6357 196.203H75.6584C75.6982 196.598 75.8771 196.925 76.1953 197.183C76.5163 197.439 76.8999 197.567 77.3459 197.567C77.7038 197.567 78.022 197.483 78.3004 197.316C78.5817 197.148 78.8019 196.918 78.9609 196.625C79.1229 196.33 79.2038 195.996 79.2038 195.624C79.2038 195.243 79.12 194.904 78.9524 194.605C78.7877 194.304 78.5604 194.067 78.2706 193.894C77.9808 193.72 77.6499 193.632 77.2777 193.629C77.0107 193.627 76.7365 193.668 76.4553 193.753C76.174 193.835 75.9425 193.942 75.7607 194.073L74.772 193.953L75.3004 189.658H79.8345V190.595H76.1868L75.88 193.169H75.9311C76.1101 193.027 76.3345 192.909 76.6044 192.816C76.8743 192.722 77.1556 192.675 77.4482 192.675C77.9823 192.675 78.4581 192.803 78.8757 193.058C79.2962 193.311 79.6257 193.658 79.8644 194.098C80.1058 194.539 80.2266 195.041 80.2266 195.607C80.2266 196.164 80.1016 196.661 79.8516 197.098C79.6044 197.533 79.2635 197.877 78.8288 198.129C78.3942 198.379 77.8999 198.504 77.3459 198.504ZM81.7149 196.595V195.726L85.5501 189.658H86.1808V191.004H85.7546L82.8569 195.59V195.658H88.0217V196.595H81.7149ZM85.8228 198.385V196.331V195.926V189.658H86.8285V198.385H85.8228ZM92.5675 198.504C92.005 198.504 91.5036 198.408 91.0632 198.215C90.6257 198.021 90.2777 197.753 90.0192 197.409C89.7635 197.063 89.6243 196.661 89.6016 196.203H90.6754C90.6982 196.485 90.7948 196.727 90.9652 196.932C91.1357 197.134 91.3587 197.29 91.6342 197.401C91.9098 197.512 92.2152 197.567 92.5504 197.567C92.9254 197.567 93.2578 197.502 93.5476 197.371C93.8374 197.24 94.0646 197.058 94.2294 196.825C94.3942 196.593 94.4766 196.323 94.4766 196.016C94.4766 195.695 94.397 195.412 94.2379 195.168C94.0788 194.921 93.8459 194.727 93.5391 194.588C93.2323 194.449 92.8573 194.379 92.4141 194.379H91.7152V193.442H92.4141C92.7607 193.442 93.0646 193.379 93.326 193.254C93.5902 193.129 93.7962 192.953 93.9439 192.726C94.0945 192.499 94.1698 192.232 94.1698 191.925C94.1698 191.629 94.1044 191.372 93.9737 191.154C93.8431 190.935 93.6584 190.764 93.4198 190.642C93.184 190.52 92.9056 190.459 92.5845 190.459C92.2834 190.459 91.9993 190.514 91.7323 190.625C91.4681 190.733 91.2521 190.891 91.0845 191.098C90.9169 191.303 90.826 191.55 90.8118 191.84H89.7891C89.8061 191.382 89.9439 190.982 90.2024 190.638C90.4609 190.291 90.799 190.021 91.2166 189.828C91.6371 189.635 92.0987 189.539 92.6016 189.539C93.1413 189.539 93.6044 189.648 93.9908 189.867C94.3771 190.083 94.674 190.368 94.8814 190.723C95.0888 191.078 95.1925 191.462 95.1925 191.874C95.1925 192.365 95.0632 192.784 94.8047 193.131C94.549 193.477 94.201 193.718 93.7607 193.851V193.919C94.3118 194.01 94.7422 194.245 95.0519 194.622C95.3615 194.997 95.5163 195.462 95.5163 196.016C95.5163 196.49 95.3871 196.916 95.1286 197.294C94.8729 197.669 94.5234 197.965 94.0803 198.181C93.6371 198.396 93.1328 198.504 92.5675 198.504Z" fill="#8BF349"/>
<path d="M188.394 148.083L204.742 159.604" stroke="#8BF349"/>
<path d="M208.373 159.723C207.873 159.723 207.423 159.624 207.022 159.425C206.621 159.226 206.3 158.953 206.059 158.607C205.817 158.26 205.685 157.865 205.663 157.422H206.685C206.725 157.817 206.904 158.144 207.222 158.402C207.543 158.658 207.927 158.786 208.373 158.786C208.731 158.786 209.049 158.702 209.327 158.534C209.609 158.367 209.829 158.137 209.988 157.844C210.15 157.548 210.231 157.215 210.231 156.843C210.231 156.462 210.147 156.122 209.979 155.824C209.815 155.523 209.587 155.286 209.298 155.112C209.008 154.939 208.677 154.851 208.305 154.848C208.038 154.845 207.763 154.887 207.482 154.972C207.201 155.054 206.969 155.161 206.788 155.291L205.799 155.172L206.327 150.877H210.862V151.814H207.214L206.907 154.388H206.958C207.137 154.246 207.362 154.128 207.631 154.034C207.901 153.941 208.183 153.894 208.475 153.894C209.009 153.894 209.485 154.021 209.903 154.277C210.323 154.53 210.653 154.877 210.891 155.317C211.133 155.757 211.254 156.26 211.254 156.825C211.254 157.382 211.129 157.879 210.879 158.317C210.631 158.752 210.29 159.095 209.856 159.348C209.421 159.598 208.927 159.723 208.373 159.723ZM212.742 157.814V156.945L216.577 150.877H217.208V152.223H216.782L213.884 156.808V156.877H219.049V157.814H212.742ZM216.85 159.604V157.55V157.145V150.877H217.855V159.604H216.85ZM220.441 157.814V156.945L224.276 150.877H224.907V152.223H224.481L221.583 156.808V156.877H226.748V157.814H220.441ZM224.549 159.604V157.55V157.145V150.877H225.555V159.604H224.549Z" fill="#8BF349"/>
</svg>
