<svg width="214" height="214" viewBox="0 0 214 214" fill="none" xmlns="http://www.w3.org/2000/svg">
<rect width="214" height="214" fill="none"/>
<rect x="-90" y="-154" width="393" height="852" rx="15" fill="none"/>
<path d="M94.4275 60.0537C95.4306 55.5564 94.6616 57.6964 88.1914 48.2336C82.3733 39.7405 83.577 27.6695 76.6889 21.6675C72.4591 17.9894 67.1592 13.8598 47.4144 23.7908C40.5597 27.2348 26.867 38.5869 11.352 43.7864C-1.13686 47.9661 5.7847 53.0152 8.44298 53.9514C17.9058 57.2784 30.4281 50.0894 30.4281 50.0894C30.4281 50.0894 12.4722 61.8259 23.0217 64.6012C31.5817 66.8583 42.3653 56.5762 42.3653 56.5762C42.3653 56.5762 31.7991 67.7778 40.4427 70.6534C46.3778 72.6262 58.1645 61.3578 58.1645 61.3578C58.1645 61.3578 49.9222 72.8102 53.9013 75.2344C59.9535 78.9125 69.8677 69.433 69.8677 69.433C69.8677 69.433 61.9931 80.9355 66.1059 82.808C72.2585 85.6167 81.3869 77.7255 81.3869 77.7255C81.3869 77.7255 92.6219 68.0955 94.4275 60.0537Z" fill="#E0E0E0"/>
<path d="M59.6525 23.005C59.6525 23.005 48.8856 29.3247 44.9567 34.4072C44.4384 35.0759 41.2117 38.3027 44.0539 40.1584C44.7728 40.6266 46.9128 40.3256 48.1834 39.5566C53.9681 36.0456 64.2 27.7197 65.3201 28.1544C66.4403 28.5891 56.175 35.3434 52.8646 43.5189C51.6275 46.5952 54.035 48.802 60.3045 45.1072C67.1257 41.0947 72.994 34.0227 73.9804 34.0561C73.9804 34.0561 71.2385 38.8377 67.7276 42.6161C64.1498 46.4781 61.6253 50.407 64.2668 51.6442C67.5939 53.2158 74.7829 48.9525 74.7829 48.9525C74.7829 48.9525 70.202 54.5031 64.2668 55.757C62.177 56.2084 60.5385 55.9242 59.5354 54.7873C58.014 53.0486 58.5992 50.3736 58.5992 50.3736C55.4393 51.6275 49.989 53.6672 46.7456 50.9253C44.221 48.7853 47.6651 42.5158 47.6651 42.5158C47.6651 42.5158 41.5628 45.893 38.0853 44.8731C36.2796 44.3381 33.521 41.73 37.5503 36.1961C43.9034 27.5525 59.6525 23.005 59.6525 23.005ZM72.5259 83.8111C79.4976 74.7495 86.4693 65.7047 93.441 56.6431L92.8392 54.035C92.5382 53.1155 89.7964 52.9984 86.0012 55.1886C83.4599 56.6598 78.7954 61.943 75.8028 59.0339C73.7296 57.0277 79.6815 49.8553 79.6815 49.8553C78.8623 49.872 72.2584 54.2858 71.2051 58.7163C70.3023 62.478 71.1717 66.8917 79.6648 62.595C79.9156 62.4613 80.1831 62.3108 80.4339 62.1603C79.3639 63.8489 78.3942 65.6211 77.575 67.4267C75.2009 72.643 73.7965 78.227 72.5259 83.8111Z" fill="#BDBDBD"/>
<path d="M136.074 18.608L136.191 18.6916L136.074 18.608Z" fill="url(#paint0_linear_0_1)"/>
<path d="M145.67 118.419C128.868 143.597 114.741 171.334 82.6073 179.827C82.273 179.91 81.9219 179.81 81.6878 179.559L29.1909 121.629C27.6361 119.907 28.4052 117.182 30.612 116.463C52.1959 109.374 65.6713 92.4881 77.6753 74.482C94.2269 49.6881 108.404 22.4031 139.518 13.4586C140.705 13.0072 142.093 13.2914 142.995 14.2778C149.967 21.9684 202.548 72.0244 202.631 72.1247C202.665 72.1414 158.561 99.092 145.67 118.419Z" fill="#66BB6A"/>
<path d="M97.1527 129.921C96.0158 128.785 94.6616 128.216 93.09 128.233C91.5185 128.25 89.4788 128.885 86.9543 130.139C83.5269 131.961 80.551 132.814 78.0599 132.73C75.5688 132.63 73.3285 131.593 71.3557 129.604C69.3327 127.581 68.2627 125.324 68.1624 122.849C68.0454 120.375 68.898 117.984 70.7204 115.677L67.5271 112.467C67.3018 112.237 67.1757 111.928 67.1757 111.606C67.1757 111.284 67.3018 110.975 67.5271 110.745L68.5636 109.708C69.0318 109.24 69.8008 109.24 70.2857 109.708L73.4957 112.935C75.853 111.146 78.3441 110.411 80.9522 110.712C83.2929 110.996 85.6 112.149 87.8571 114.223C88.2918 114.624 88.2918 115.326 87.8738 115.744L85.9679 117.65C85.5666 118.051 84.9146 118.051 84.4966 117.667C82.9919 116.363 81.4371 115.61 79.8488 115.443C77.993 115.242 76.3546 115.844 74.9502 117.249C73.479 118.72 72.7266 120.225 72.7099 121.746C72.6932 123.284 73.3619 124.739 74.7161 126.093C75.97 127.363 77.3911 127.949 78.9627 127.882C80.5343 127.815 82.5572 127.146 85.065 125.875C87.5729 124.605 89.6961 123.819 91.5018 123.501C93.2907 123.184 94.9291 123.267 96.4004 123.735C97.8716 124.22 99.2593 125.106 100.563 126.41C102.636 128.5 103.69 130.808 103.706 133.332C103.723 135.857 102.72 138.364 100.68 140.855L103.355 143.53C103.823 143.999 103.823 144.768 103.355 145.253L102.336 146.272C101.867 146.74 101.098 146.74 100.613 146.272L97.9385 143.597C95.4307 145.67 92.8058 146.657 90.0807 146.523C87.6565 146.406 85.3325 145.37 83.1257 143.413C83.0198 143.318 82.9348 143.201 82.8762 143.071C82.8175 142.94 82.7864 142.799 82.7848 142.656C82.7833 142.514 82.8113 142.372 82.867 142.24C82.9228 142.109 83.0052 141.99 83.109 141.892L85.0483 139.969C85.4329 139.585 86.0515 139.551 86.4694 139.903C87.9574 141.19 89.4955 141.842 91.0838 141.875C92.9061 141.909 94.6449 141.09 96.3 139.434C97.9218 137.829 98.8079 136.158 98.9583 134.469C99.0754 132.78 98.4902 131.259 97.1527 129.921Z" fill="white"/>
<path d="M101.433 141.675L97.9217 143.631L70.7872 115.777L69.8677 114.841L73.4956 112.952L100.63 140.872L101.433 141.675Z" fill="white"/>
<path opacity="0.5" d="M126.862 100.262C140.177 100.262 150.97 89.4686 150.97 76.1539C150.97 62.8392 140.177 52.0455 126.862 52.0455C113.547 52.0455 102.753 62.8392 102.753 76.1539C102.753 89.4686 113.547 100.262 126.862 100.262Z" fill="#2E7D32"/>
<path d="M154.08 131.108C145.47 144.015 133.065 168.642 115.978 182.184C100.296 194.623 80.5175 200.759 80.5175 200.759L26.098 137.027L28.3551 119.539L81.7213 179.576C81.9386 179.81 82.273 179.927 82.5907 179.844C114.741 171.35 128.868 143.614 145.671 118.436C158.561 99.1088 177.837 78.5113 202.648 72.1581C204.621 74.3316 203.751 92.555 201.595 93.2739C179.61 100.563 166.118 113.035 154.08 131.108Z" fill="#2E7D32"/>
<path d="M131.827 139.635L136.876 158.276C136.876 158.276 152.258 135.773 154.749 130.323L149.165 113.52C141.708 122.799 131.827 139.635 131.827 139.635Z" fill="#FFC06C"/>
<path d="M130.523 28.4386C131.811 30.2944 134.068 32.217 137.696 33.3372C138.983 33.7384 140.337 33.9391 141.691 33.9391C144.567 33.9391 146.975 33.053 148.596 32.2337C152.659 36.3131 157.741 41.2786 162.657 46.0936C167.472 50.8083 172.42 55.6567 176.45 59.6859C175.146 61.6755 174.109 64.6848 174.544 68.7475C174.744 70.62 176.065 72.5259 177.469 74.0808C168.575 79.7986 151.505 92.5049 134.001 114.908C130.306 119.639 126.695 124.889 123.217 129.955C114.557 142.561 105.612 155.568 93.7086 163.526C92.3042 161.236 89.7128 158.46 85.0817 157.307C83.9615 157.022 82.8581 156.889 81.8048 156.889C78.8289 156.889 76.4883 157.992 74.8164 159.296L49.5711 130.272C51.6943 128.617 53.6839 125.792 53.8845 121.428C53.9848 119.389 52.8981 117.533 51.6609 116.128C63.9659 107.017 76.9564 92.4881 83.9448 82.0556C84.9647 80.5342 86.0179 78.9459 87.1047 77.3075C98.0387 60.8061 112.852 38.5367 130.523 28.4386ZM131.844 24.5264C110.578 35.0592 93.6417 62.4947 81.5875 80.4506C73.6962 92.2039 59.4351 107.535 47.1469 115.811C47.1469 115.811 51.1761 118.67 51.0423 121.261C50.7079 128.216 45.057 129.386 45.057 129.386L74.7328 163.493C74.7328 163.493 76.9062 159.681 81.7881 159.681C82.5739 159.681 83.4433 159.781 84.3795 160.015C91.1004 161.687 92.4547 167.605 92.4547 167.605C111.414 156.571 122.866 133.717 136.208 116.613C154.314 93.4244 172.32 80.2834 182.067 74.5155C182.067 74.5155 177.587 70.8875 177.336 68.4131C176.65 61.9095 180.328 59.5689 180.328 59.5689C171.718 50.8584 157.574 37.2995 149.014 28.6225C149.014 28.6225 145.905 31.0634 141.675 31.0634C140.672 31.0634 139.602 30.9297 138.515 30.5953C132.362 28.7395 131.844 24.5264 131.844 24.5264Z" fill="#2E7D32"/>
<path d="M89.9804 55.7069L73.713 80.3002L131.827 139.635C131.827 139.635 141.324 124.622 149.148 113.52L89.9804 55.7069Z" fill="#FFECB3"/>
<path opacity="0.68" d="M151.505 120.576C151.505 120.576 140.036 126.41 136.91 144.199C135.723 150.92 136.893 158.276 136.893 158.276L146.356 143.714L153.127 123.468L151.505 120.576Z" fill="#D69136"/>
<path d="M148.212 124.438C151.539 121.244 152.642 120.258 163.041 119.506C173.307 118.753 178.021 114.256 190.995 116.948C196.479 118.085 205.172 123.1 202.966 143.096C202.13 150.72 202.33 168.341 205.925 184.307C208.817 197.147 200.909 193.854 198.736 192.065C190.978 185.695 190.644 171.267 190.644 171.267C190.644 171.267 189.908 192.7 182.067 185.127C175.714 178.974 178.907 164.429 178.907 164.429C178.907 164.429 174.795 179.275 167.856 173.357C163.091 169.294 166.636 153.378 166.636 153.378C166.636 153.378 161.102 166.368 156.989 164.212C150.703 160.935 153.679 147.543 153.679 147.543C153.679 147.543 147.927 160.233 144.182 157.675C138.598 153.863 140.621 141.976 140.621 141.976C140.621 141.976 142.26 130.139 148.212 124.438Z" fill="#E0E0E0"/>
<path d="M197.85 132.546C197.85 132.546 198.652 142.878 197.933 149.048C197.482 152.876 197.281 156.387 193.77 155.869C192.918 155.735 190.928 154.08 190.577 147.71C190.209 140.956 191.614 132.028 190.627 131.359C189.641 130.674 189.591 142.394 184.709 149.733C182.87 152.492 179.777 152.793 179.292 145.52C178.757 137.612 182.853 128.25 182.268 127.447C182.268 127.447 178.807 131.71 176.801 137.746C174.795 143.781 173.908 146.623 171.551 144.885C167.321 141.775 173.524 129.386 173.524 129.386C173.524 129.386 168.976 133.449 167.004 139.133C165.75 142.745 166.435 148.68 169.645 150.185C173.424 151.957 175.631 148.797 175.631 148.797C175.631 148.797 176.433 158.912 181.365 158.694C186.096 158.477 187.3 153.144 187.3 153.144C187.3 153.144 187.1 158.293 191.881 161.821C194.205 163.543 199.605 163.827 200.274 157.006C201.361 145.938 197.85 132.546 197.85 132.546ZM158.945 128.918C157.925 128.667 156.454 133.265 154.615 135.857C153.913 136.826 152.408 138.816 150.101 138.649C147.794 138.481 149.616 131.694 149.081 132.061C148.546 132.429 146.389 136.057 147.242 140.27C147.476 141.441 148.663 142.828 149.833 143.012C154.214 143.714 156.136 138.331 156.136 138.331C156.136 138.331 155.484 144.768 159.815 145.436C165.048 146.239 166.118 137.997 165.649 137.696C165.181 137.395 163.493 142.878 159.764 140.538C156.705 138.598 159.965 129.186 158.945 128.918Z" fill="#BDBDBD"/>
<path d="M26.098 137.01L80.3169 200.525C80.3169 200.525 82.7411 196.93 83.2929 191.329C83.7777 186.448 82.0724 179.961 82.0724 179.961L28.3551 119.522L26.098 137.01Z" fill="#206022"/>
<defs>
<linearGradient id="paint0_linear_0_1" x1="136.135" y1="18.6526" x2="136.135" y2="18.6526" gradientUnits="userSpaceOnUse">
<stop stop-color="#43A047"/>
<stop offset="0.999" stop-color="#66BB6A"/>
</linearGradient>
</defs>
</svg>
